<?xml version="1.0" encoding="UTF-8"?>
<svg version="1.1" xmlns="http://www.w3.org/2000/svg" width="1200" height="1200">
<path d="M0 0 C396 0 792 0 1200 0 C1200 396 1200 792 1200 1200 C804 1200 408 1200 0 1200 C0 804 0 408 0 0 Z " fill="#000000" transform="translate(0,0)"/>
<path d="M0 0 C26.07 0 52.14 0 79 0 C75.625492 10.12352401 75.625492 10.12352401 74.01733398 14.15698242 C73.47312553 15.52759071 73.47312553 15.52759071 72.91792297 16.92588806 C72.53121933 17.89264969 72.14451569 18.85941132 71.74609375 19.85546875 C71.12670174 21.41310692 71.12670174 21.41310692 70.49479675 23.00221252 C69.60692563 25.23466072 68.71802407 27.46669933 67.82818604 29.69836426 C65.44801699 35.6700449 63.0783381 41.64588982 60.70703125 47.62109375 C59.98456207 49.44074142 59.98456207 49.44074142 59.24749756 51.29714966 C48.2764292 78.93104539 37.40175782 106.57418335 27.2800293 134.53222656 C23.02446376 146.27733211 18.61008309 157.94969421 14.02978516 169.57202148 C11.30867911 176.50112014 8.74672057 183.46725326 6.28982544 190.49298096 C3.81046778 197.57489927 1.21725617 204.61208718 -1.40258789 211.64306641 C-2.1718555 213.70800558 -2.93864553 215.77385091 -3.70507812 217.83984375 C-9.06589482 232.2540446 -14.54551242 246.61998728 -20 261 C22.9 261 65.8 261 110 261 C92.14629652 212.85027808 92.14629652 212.85027808 74.16015625 164.75 C68.89141013 150.72984141 63.66766386 136.69305827 58.45068359 122.65356445 C57.97677185 121.37869926 57.97677185 121.37869926 57.49328613 120.07807922 C56.87733614 118.42034559 56.26200534 116.76238173 55.64733887 115.10417175 C54.18498506 111.16354958 52.70929099 107.22898031 51.20361328 103.3046875 C50.92187759 102.56661865 50.64014191 101.8285498 50.34986877 101.06811523 C49.82229021 99.68840536 49.29075157 98.31020055 48.75450134 96.93383789 C47.68170684 94.12176341 47 92.04088356 47 89 C72.41 89 97.82 89 124 89 C128.50323508 99.13227894 128.50323508 99.13227894 130.19140625 103.36328125 C130.57216309 104.3157373 130.95291992 105.26819336 131.34521484 106.24951172 C131.74691895 107.26029785 132.14862305 108.27108398 132.5625 109.3125 C133.21919678 110.96016357 133.21919678 110.96016357 133.88916016 112.64111328 C138.09207541 123.20147984 142.25169053 133.7787668 146.39819336 144.36138916 C148.79056061 150.46706818 151.18621489 156.57145493 153.58203125 162.67578125 C161.68187629 183.31607378 169.77110532 203.96036869 177.82284546 224.61947632 C184.3278725 241.306898 190.87906184 257.9760981 197.43295288 274.64437866 C203.37379023 289.75416451 209.29674521 304.87062271 215.1875 320 C220.94699252 334.79198677 226.77415142 349.55642701 232.625 364.3125 C238.19495941 378.36526591 243.76156914 392.41927613 249.25970459 406.50033569 C249.87348517 408.07128852 250.48841683 409.64179215 251.10455322 411.21182251 C251.94153973 413.34565568 252.77417994 415.48112943 253.60546875 417.6171875 C254.07106201 418.80940918 254.53665527 420.00163086 255.01635742 421.22998047 C256 424 256 424 256 426 C228.28 426 200.56 426 172 426 C167.50046174 415.87603891 167.50046174 415.87603891 165.80859375 411.25366211 C165.2364917 409.69783669 165.2364917 409.69783669 164.65283203 408.11058044 C164.25177246 407.01061234 163.85071289 405.91064423 163.4375 404.77734375 C162.78950439 403.01252403 162.78950439 403.01252403 162.12841797 401.21205139 C160.98013334 398.08355084 159.83434621 394.95416121 158.69000244 391.82421875 C150.8952436 370.51050045 142.96876755 349.25004679 135 328 C75.6 328 16.2 328 -45 328 C-50.94 344.17 -56.88 360.34 -63 377 C-73.11917476 404.33042071 -73.11917476 404.33042071 -76 412 C-76.2349115 412.62543701 -76.469823 413.25087402 -76.71185303 413.89526367 C-77.40216857 415.72833089 -78.09747555 417.55951599 -78.79296875 419.390625 C-79.19410889 420.44797852 -79.59524902 421.50533203 -80.00854492 422.59472656 C-81 425 -81 425 -82 426 C-84.61688441 426.09509559 -87.207289 426.12556 -89.82446289 426.11352539 C-90.64390884 426.11367142 -91.4633548 426.11381744 -92.30763245 426.1139679 C-95.02933353 426.11326852 -97.75096705 426.10547501 -100.47265625 426.09765625 C-102.35452741 426.09579216 -104.23639906 426.09436821 -106.11827087 426.09336853 C-111.08148529 426.08954267 -116.04467064 426.07971181 -121.00787354 426.06866455 C-126.06839606 426.0584519 -131.12892327 426.05387122 -136.18945312 426.04882812 C-146.12631488 426.0380896 -156.06315503 426.02101236 -166 426 C-164.11653802 419.34654551 -161.90302681 412.94750052 -159.2734375 406.5546875 C-158.55891278 404.79290976 -157.84506102 403.03085896 -157.13183594 401.26855469 C-156.77424194 400.38744019 -156.41664795 399.50632568 -156.04821777 398.59851074 C-154.45240487 394.64252271 -152.89916927 390.6703594 -151.3515625 386.6953125 C-150.90211525 385.5422184 -150.90211525 385.5422184 -150.44358826 384.36582947 C-149.82456509 382.77683965 -149.20587192 381.18772123 -148.5874939 379.59848022 C-146.87149213 375.18858582 -145.15226226 370.77994936 -143.43359375 366.37109375 C-143.07475601 365.45034561 -142.71591827 364.52959747 -142.34620667 363.58094788 C-138.13597536 352.77947977 -133.91231733 341.9832696 -129.6875 331.1875 C-129.30199982 330.20224335 -128.91649963 329.21698669 -128.51931763 328.20187378 C-124.62174488 318.24086308 -120.72030517 308.28145271 -116.80004883 298.3293457 C-110.88917577 283.32302781 -105.06455577 268.28366022 -99.23880005 253.24414062 C-93.27156785 237.84070353 -87.27574529 222.44956501 -81.21533203 207.08251953 C-67.85599045 173.19842012 -54.58233048 139.28036846 -41.4375 105.3125 C-34.73181647 87.98430571 -27.94745205 70.68908103 -21.09741211 53.41748047 C-15.73713767 39.8971776 -10.44805319 26.35011079 -5.19995117 12.78588867 C-4.92221359 12.06894836 -4.64447601 11.35200806 -4.35832214 10.61334229 C-3.61430721 8.69235577 -2.87155925 6.77087868 -2.12890625 4.84936523 C-1 2 -1 2 0 0 Z " fill="#FEFEFE" transform="translate(555,387)"/>
<path d="M0 0 C54.45 0 108.9 0 165 0 C165 203.28 165 406.56 165 616 C110.55 616 56.1 616 0 616 C0 604.78 0 593.56 0 582 C43.23 582 86.46 582 131 582 C131 401.16 131 220.32 131 34 C87.77 34 44.54 34 0 34 C0 22.78 0 11.56 0 0 Z " fill="#FCFCFC" transform="translate(743,292)"/>
<path d="M0 0 C54.45 0 108.9 0 165 0 C165 11.22 165 22.44 165 34 C121.44 34 77.88 34 33 34 C33 214.84 33 395.68 33 582 C76.56 582 120.12 582 165 582 C165 593.22 165 604.44 165 616 C110.55 616 56.1 616 0 616 C0 412.72 0 209.44 0 0 Z " fill="#FEFEFE" transform="translate(293,292)"/>
</svg>
