<svg width="132" height="66" viewBox="0 0 132 66" fill="none" xmlns="http://www.w3.org/2000/svg">
  <g clip-path="url(#clip0)">
    <path d="M26.6174 16.4202L20.5734 16.4202L7.7992 49.5946H14.2897L17.1008 41.8836H30.9085L33.7197 49.5946H40.2101L30.0784 23.3676H24.1025L29.0069 36.7146H19.0025L23.922 23.3262L26.6174 16.4202Z" fill="white"/>
    <path d="M41.2036 49.5946V26.1649H46.7432V29.3425H46.9499C47.9008 26.8852 50.0505 25.9107 52.9443 25.9107H54.3085V31.5457H52.9443C48.3142 31.5457 47.1566 34.7657 47.1566 38.7059V49.5946H41.2036Z" fill="white"/>
    <path fill-rule="evenodd" clip-rule="evenodd" d="M54.3008 37.9433C54.3008 45.4849 58.8482 50.3149 66.0001 50.3149C72.0772 50.3149 76.3353 47.0101 76.9967 41.9683H71.1264C70.7543 44.1714 68.8113 45.6543 66.0001 45.6543C62.8996 45.6543 60.7912 43.5783 60.3778 39.8922H77.0794C77.0905 39.6197 77.1015 39.3777 77.1118 39.153C77.1399 38.5392 77.1621 38.0552 77.1621 37.4349C77.1621 29.851 72.6146 25.4446 65.9588 25.4446C58.8069 25.4446 54.3008 30.317 54.3008 37.9433ZM70.9197 35.613H60.4192C60.8326 32.1388 62.8583 30.1475 65.9588 30.1475C68.8526 30.1475 70.713 32.1388 70.9197 35.613Z" fill="white"/>
    <path d="M78.8009 49.5946V26.1649H84.3405V29.3425H84.5472C85.9528 27.0546 88.4746 25.4446 91.9885 25.4446C97.0734 25.4446 99.6365 28.5799 99.6365 33.7912V49.5946H93.6835V35.7401C93.6835 32.6896 92.4433 31.0796 89.7561 31.0796C86.5729 31.0796 84.7539 33.2828 84.7539 37.3925V49.5946H78.8009Z" fill="white"/>
    <path fill-rule="evenodd" clip-rule="evenodd" d="M101.092 43.5359C101.092 47.8575 104.068 50.3149 108.946 50.3149C112.336 50.3149 115.065 49.2556 116.47 46.7983H116.677V47.3067C116.677 48.8743 117.793 49.5946 119.612 49.5946H124.201V44.1291H122.671C121.845 44.1291 121.679 43.8325 121.679 42.6462V33.2828C121.679 27.8173 118.537 25.4446 112.006 25.4446C105.639 25.4446 102.084 28.1562 101.836 33.1133H107.872C107.996 31.0796 109.318 30.0204 111.964 30.0204C114.569 30.0204 115.768 31.0796 115.768 32.9438C115.768 34.9351 114.569 35.1894 109.98 35.9944C104.11 36.9265 101.092 39.0449 101.092 43.5359ZM110.807 46.0357C108.574 46.0357 107.169 45.0188 107.169 43.0275C107.169 41.1633 108.492 40.3159 110.848 39.8499C113.246 39.3838 114.486 39.0872 115.726 38.2399V41.3751C115.726 44.1291 113.618 46.0357 110.807 46.0357Z" fill="white"/>
    <path fill-rule="evenodd" clip-rule="evenodd" d="M132.001 8.5V57.5H119.027V54.8077H129.335V11.1923H119.027V8.5H132.001Z" fill="white"/>
    <path fill-rule="evenodd" clip-rule="evenodd" d="M0.000596166 8.5V57.5H12.9741V54.8077H2.66638V11.1923H12.9741V8.5H0.000596166Z" fill="white"/>
  </g>
  <defs>
    <clipPath id="clip0">
      <rect width="132" height="49" fill="white" transform="translate(0 8.5)"/>
    </clipPath>
  </defs>
</svg>
